<svg id='Post_Stamp_24' width='24' height='24' viewBox='0 0 24 24' xmlns='http://www.w3.org/2000/svg' xmlns:xlink='http://www.w3.org/1999/xlink'><rect width='24' height='24' stroke='none' fill='#000000' opacity='0'/>


<g transform="matrix(0.34 0 0 0.34 12 12)" >
<path style="stroke: none; stroke-width: 1; stroke-dasharray: none; stroke-linecap: butt; stroke-dashoffset: 0; stroke-linejoin: miter; stroke-miterlimit: 4; fill: rgb(0,0,0); fill-rule: nonzero; opacity: 1;" transform=" translate(-32, -31)" d="M 10 2 C 8.898438 2 8 2.898438 8 4 L 8 7.5 C 8 8.300781 8.5 8.898438 9.300781 9 C 10.300781 9.101563 11 10 11 11 C 11 12 10.300781 12.800781 9.300781 13 C 8.5 13.101563 8 13.699219 8 14.5 L 8 17.597656 C 8 18.398438 8.5 19 9.300781 19.097656 C 10.300781 19.199219 11 20.097656 11 21.097656 C 11 22.097656 10.300781 22.898438 9.300781 23.097656 C 8.5 23.097656 8 23.699219 8 24.5 L 8 27.597656 C 8 28.398438 8.5 29 9.300781 29.097656 C 10.300781 29.199219 11 30.097656 11 31.097656 C 11 32.097656 10.300781 32.898438 9.300781 33.097656 C 8.5 33.097656 8 33.699219 8 34.5 L 8 37.597656 C 8 38.398438 8.5 39 9.300781 39.097656 C 10.300781 39.199219 11 40.097656 11 41.097656 C 11 42.097656 10.300781 42.898438 9.300781 43.097656 C 8.5 43.097656 8 43.699219 8 44.5 L 8 47.597656 C 8 48.398438 8.5 49 9.300781 49.097656 C 10.300781 49.199219 11 50.097656 11 51.097656 C 11 52.097656 10.300781 52.898438 9.300781 53.097656 C 8.5 53.097656 8 53.699219 8 54.5 L 8 58 C 8 59.101563 8.898438 60 10 60 L 13.5 60 C 14.300781 60 14.898438 59.5 15 58.699219 C 15.101563 57.699219 16 57 17 57 C 18 57 18.800781 57.699219 19 58.699219 C 19.101563 59.398438 19.699219 60 20.5 60 L 23.597656 60 C 24.398438 60 25 59.5 25.097656 58.699219 C 25.199219 57.699219 26.097656 57 27.097656 57 C 28.097656 57 28.898438 57.699219 29.097656 58.699219 C 29.199219 59.398438 29.800781 60 30.597656 60 L 33.699219 60 C 34.5 60 35.097656 59.5 35.199219 58.699219 C 35.300781 57.699219 36.199219 57 37.199219 57 C 38.199219 57 39 57.699219 39.199219 58.699219 C 39.300781 59.398438 39.898438 60 40.699219 60 L 43.800781 60 C 44.601563 60 45.199219 59.5 45.300781 58.699219 C 45.402344 57.699219 46.300781 57 47.300781 57 C 48.300781 57 49.101563 57.699219 49.300781 58.699219 C 49.402344 59.398438 50 60 50.800781 60 L 54 60 C 55.101563 60 56 59.101563 56 58 L 56 54.5 C 56 53.699219 55.5 53.101563 54.699219 53 C 53.699219 52.898438 53 52 53 51 C 53 50 53.699219 49.199219 54.699219 49 C 55.398438 48.898438 56 48.300781 56 47.5 L 56 44.402344 C 56 43.601563 55.5 43 54.699219 42.902344 C 53.699219 42.800781 53 41.902344 53 40.902344 C 53 39.902344 53.699219 39.101563 54.699219 38.902344 C 55.398438 38.800781 56 38.199219 56 37.402344 L 56 34.300781 C 56 33.5 55.5 32.902344 54.699219 32.800781 C 53.699219 32.699219 53 31.800781 53 30.800781 C 53 29.800781 53.699219 29 54.699219 28.800781 C 55.398438 28.699219 56 28.101563 56 27.300781 L 56 24.199219 C 56 23.398438 55.5 22.800781 54.699219 22.699219 C 53.699219 22.597656 53 21.699219 53 20.699219 C 53 19.699219 53.699219 18.898438 54.699219 18.699219 C 55.398438 18.597656 56 18 56 17.199219 L 56 14.097656 C 56 13.300781 55.5 12.699219 54.699219 12.597656 C 53.699219 12.5 53 11.597656 53 10.597656 C 53 9.601563 53.699219 9.199219 54.699219 9 C 55.5 8.898438 56 8.300781 56 7.5 L 56 4 C 56 2.898438 55.101563 2 54 2 L 50.5 2 C 49.699219 2 49.101563 2.5 49 3.300781 C 48.898438 4.300781 48 5 47 5 C 46 5 45.199219 4.300781 45 3.300781 C 44.898438 2.5 44.300781 2 43.5 2 L 40.402344 2 C 39.601563 2 39 2.5 38.902344 3.300781 C 38.800781 4.300781 37.902344 5 36.902344 5 C 35.902344 5 35.101563 4.300781 34.902344 3.300781 C 34.902344 2.5 34.300781 2 33.5 2 L 30.402344 2 C 29.601563 2 29 2.5 28.902344 3.300781 C 28.800781 4.300781 27.902344 5 26.902344 5 C 25.902344 5 25.101563 4.300781 24.902344 3.300781 C 24.902344 2.5 24.300781 2 23.5 2 L 20.402344 2 C 19.601563 2 19 2.5 18.902344 3.300781 C 18.800781 4.300781 17.902344 5 16.902344 5 C 15.902344 5 15.101563 4.300781 14.902344 3.300781 C 14.902344 2.5 14.300781 2 13.5 2 Z M 10 4 L 13.097656 4 C 13.5 5.699219 15.101563 7 17 7 C 18.800781 7 20.402344 5.699219 20.902344 4 L 23.199219 4 C 23.597656 5.699219 25.199219 7 27.097656 7 C 28.898438 7 30.5 5.699219 31 4 L 33.300781 4 C 33.699219 5.699219 35.300781 7 37.199219 7 C 39 7 40.597656 5.699219 41.097656 4 L 43.402344 4 C 43.800781 5.699219 45.402344 7 47.300781 7 C 49.101563 7 50.699219 5.699219 51.199219 4 L 54 4 L 54 7.101563 C 52.300781 7.5 51 9.101563 51 11 C 51 12.898438 52.300781 14.402344 54 14.902344 L 54 17.199219 C 52.300781 17.597656 51 19.199219 51 21.097656 C 51 23 52.300781 24.5 54 25 L 54 27.300781 C 52.300781 27.699219 51 29.300781 51 31.199219 C 51 33.097656 52.300781 34.597656 54 35.097656 L 54 37.402344 C 52.300781 37.800781 51 39.402344 51 41.300781 C 51 43.199219 52.300781 44.699219 54 45.199219 L 54 47.5 C 52.300781 47.898438 51 49.5 51 51.402344 C 51 53.300781 52.300781 54.800781 54 55.300781 L 54 58 L 50.902344 58 C 50.5 56.300781 48.898438 55 47 55 C 45.199219 55 43.597656 56.300781 43.097656 58 L 40.800781 58 C 40.402344 56.300781 38.800781 55 36.902344 55 C 35.101563 55 33.5 56.300781 33 58 L 30.699219 58 C 30.300781 56.300781 28.699219 55 26.800781 55 C 25 55 23.402344 56.300781 22.902344 58 L 20.597656 58 C 20.199219 56.300781 18.597656 55 16.699219 55 C 14.898438 55 13.300781 56.300781 12.800781 58 L 10 58 L 10 54.902344 C 11.699219 54.5 13 52.898438 13 51 C 13 49.101563 11.699219 47.597656 10 47.097656 L 10 44.800781 C 11.699219 44.402344 13 42.800781 13 40.902344 C 13 39 11.699219 37.5 10 37 L 10 34.699219 C 11.699219 34.300781 13 32.699219 13 30.800781 C 13 28.902344 11.699219 27.402344 10 26.902344 L 10 24.597656 C 11.699219 24.199219 13 22.597656 13 20.699219 C 13 18.800781 11.699219 17.300781 10 16.800781 L 10 14.5 C 11.699219 14.101563 13 12.5 13 10.597656 C 13 8.699219 11.699219 7.199219 10 6.699219 Z M 18 10 C 16.898438 10 16 10.898438 16 12 L 16 50 C 16 51.101563 16.898438 52 18 52 L 46 52 C 47.101563 52 48 51.101563 48 50 L 48 12 C 48 10.898438 47.101563 10 46 10 Z M 18 12 L 46 12 L 46 50 L 18 50 Z M 22 14 C 21.398438 14 21 14.398438 21 15 L 21 17 C 21 17.601563 21.398438 18 22 18 C 22.601563 18 23 17.601563 23 17 L 23 15 C 23 14.398438 22.601563 14 22 14 Z M 27 14 C 26.398438 14 26 14.398438 26 15 L 26 17 C 26 17.601563 26.398438 18 27 18 C 27.601563 18 28 17.601563 28 17 L 28 15 C 28 14.398438 27.601563 14 27 14 Z M 32 14 C 31.398438 14 31 14.398438 31 15 L 31 17 C 31 17.601563 31.398438 18 32 18 C 32.601563 18 33 17.601563 33 17 L 33 15 C 33 14.398438 32.601563 14 32 14 Z M 37 14 C 36.398438 14 36 14.398438 36 15 L 36 17 C 36 17.601563 36.398438 18 37 18 C 37.601563 18 38 17.601563 38 17 L 38 15 C 38 14.398438 37.601563 14 37 14 Z M 42 14 C 41.398438 14 41 14.398438 41 15 L 41 17 C 41 17.601563 41.398438 18 42 18 C 42.601563 18 43 17.601563 43 17 L 43 15 C 43 14.398438 42.601563 14 42 14 Z M 31 20 C 27.101563 20 24 23.101563 24 27 L 24 35 C 24 38.898438 27.101563 42 31 42 L 37 42 C 37.601563 42 38 41.601563 38 41 C 38 40.398438 37.601563 40 37 40 L 31 40 C 28.199219 40 26 37.800781 26 35 L 26 27 C 26 24.199219 28.199219 22 31 22 L 33 22 C 35.800781 22 38 24.199219 38 27 L 38 35 C 38 35.601563 37.601563 36 37 36 C 36.398438 36 36 35.601563 36 35 L 36 28 C 36 25.800781 34.199219 24 32 24 C 29.800781 24 28 25.800781 28 28 L 28 34 C 28 36.199219 29.800781 38 32 38 C 33.101563 38 34 37.601563 34.699219 36.902344 C 35.300781 37.601563 36.101563 38 37 38 C 38.699219 38 40 36.699219 40 35 L 40 27 C 40 23.101563 36.898438 20 33 20 Z M 32 26 C 33.101563 26 34 26.898438 34 28 L 34 34 C 34 35.101563 33.101563 36 32 36 C 30.898438 36 30 35.101563 30 34 L 30 28 C 30 26.898438 30.898438 26 32 26 Z M 22 44 C 21.398438 44 21 44.398438 21 45 L 21 47 C 21 47.601563 21.398438 48 22 48 C 22.601563 48 23 47.601563 23 47 L 23 45 C 23 44.398438 22.601563 44 22 44 Z M 27 44 C 26.398438 44 26 44.398438 26 45 L 26 47 C 26 47.601563 26.398438 48 27 48 C 27.601563 48 28 47.601563 28 47 L 28 45 C 28 44.398438 27.601563 44 27 44 Z M 32 44 C 31.398438 44 31 44.398438 31 45 L 31 47 C 31 47.601563 31.398438 48 32 48 C 32.601563 48 33 47.601563 33 47 L 33 45 C 33 44.398438 32.601563 44 32 44 Z M 37 44 C 36.398438 44 36 44.398438 36 45 L 36 47 C 36 47.601563 36.398438 48 37 48 C 37.601563 48 38 47.601563 38 47 L 38 45 C 38 44.398438 37.601563 44 37 44 Z M 42 44 C 41.398438 44 41 44.398438 41 45 L 41 47 C 41 47.601563 41.398438 48 42 48 C 42.601563 48 43 47.601563 43 47 L 43 45 C 43 44.398438 42.601563 44 42 44 Z" stroke-linecap="round" />
</g>
</svg>